
<svg width="128" height="128" version="1.1" viewBox="0 0 33.867 33.867" xmlns="http://www.w3.org/2000/svg"><defs><linearGradient id="a" x1="-15.024" x2="-15.024" y1="136.24" y2="151.73" gradientTransform="matrix(2.1167 0 0 2.1167 43.257 -287.97)" gradientUnits="userSpaceOnUse"><stop stop-color="#478cbf" offset="0"/><stop stop-color="#115482" offset="1"/></linearGradient></defs><g transform="translate(0 -263.13)"><path d="m16.933 265.3a14.735 14.735 0 0 0-14.73 14.735 14.735 14.735 0 0 0 14.73 14.735 14.735 14.735 0 0 0 14.735-14.735 14.735 14.735 0 0 0-14.735-14.735zm0 2.1691a12.566 12.566 0 0 1 12.566 12.566 12.566 12.566 0 0 1-12.566 12.566 12.566 12.566 0 0 1-12.566-12.566 12.566 12.566 0 0 1-1.3438-5.8335h1.1687a10.45 10.45 0 0 0 10.358 10.449 10.45 10.45 0 0 0 10.45-10.449 10.45 10.45 0 0 0-10.45-10.45c-2.4826 0-4.8145 0.88059-6.7297 2.4213l2.0305 2.0305h-6.2255v-6.2255l2.0645 2.0645c2.4891-1.8742 5.5695-2.9806 8.8601-2.9806a12.566 12.566 0 0 1 11.223 6.7324h1.167a14.735 14.735 0 0 0-12.326-8.5888z" fill="#fff" stroke-width=".26458" style="paint-order:markers stroke fill"/><path d="m16.933 265.3a14.735 14.735 0 0 0-14.73 14.735 14.735 14.735 0 0 0 14.73 14.735 14.735 14.735 0 0 0 14.735-14.735 14.735 14.735 0 0 0-14.735-14.735zm0 2.1691a12.566 12.566 0 0 1 12.566 12.566 12.566 12.566 0 0 1-12.566 12.566 12.566 12.566 0 0 1-12.566-12.566 12.566 12.566 0 0 1 12.566-12.566z" opacity=".15" stroke-width=".26458" style="paint-order:markers stroke fill"/><g transform="translate(-1.0801 -1.0375)"><path d="m18.014 272.7v2.1167h-2.1167v1.0583h2.1167v2.1167h1.0583v-2.1167h2.1167v-1.0583h-2.1167v-2.1167z" fill="#fff" stroke-width=".26458"/><path d="m12.42 280.07-3.175-3.175 3.175-3.175 0.74802 0.74802-2.427 2.427 2.427 2.427z" fill="#fff" stroke-width=".26458" style="paint-order:markers stroke fill"/><path d="m23.493 280.07 3.175-3.175-3.175-3.175-0.74802 0.74802 2.427 2.427-2.427 2.427z" fill="#fff" stroke-width=".26458" style="paint-order:markers stroke fill"/></g><path d="m16.933 265.3c-2.9365 0-5.7381 0.82565-8.2192 2.3392l3.0569 3.0569c1.944-1.2559 4.225-1.9566 6.6431-1.9566a10.45 10.45 0 0 1 10.45 10.45 10.45 10.45 0 0 1-10.45 10.449c-3.9535 0-7.433-2.201-9.2312-5.4623l-3.1558 0.0033a12.566 12.566 0 0 0 12.387 7.6281 12.566 12.566 0 0 0 12.566-12.566 12.566 12.566 0 0 0-12.566-12.566c-2.4826 0-4.8145 0.88059-6.7297 2.4213l2.0305 2.0305h-6.2255v-6.2255l2.0645 2.0645c2.4891-1.8742 5.5695-2.9806 8.8601-2.9806a14.735 14.735 0 0 1 14.735 14.735 14.735 14.735 0 0 1-1.5192 6.7845c-0.49014-4.2273-3.9944-7.4883-8.2192-7.4883-4.6301 0-8.4069 3.7768-8.4069 8.4069v0.001a8.4069 8.4069 0 0 0 0.08055 1.0567l-2.993-2.9913a14.735 14.735 0 0 1-3.085-8.4739 14.735 14.735 0 0 1 14.73-14.735z" fill="url(#a)" stroke-width=".26458"/></g>
</svg>
