<svg width="128" height="128" version="1.1" viewBox="0 0 33.867 33.867" xmlns="http://www.w3.org/2000/svg">
 <g transform="translate(0 -263.13)">
  <path d="m16.933 265.3-2.824 5.228-5.78-0.002 4.71 3.42-1.66 5.545 4.555-3.565 4.555 3.565-1.66-5.545 4.71-3.42-5.78 0.002z" style="fill-opacity:.9982;fill-rule:evenodd;fill:#478cbf;paint-order:stroke fill markers;stop-color:#000000;stroke-linecap:round;stroke-linejoin:round;stroke-width:.26458;stroke:#000000"/>
  <path d="m16.933 265.3-2.824 5.228-5.78-0.002 4.71 3.42-1.66 5.545 4.555-3.565 4.555 3.565-1.66-5.545 4.71-3.42-5.78 0.002z" style="fill:none;paint-order:stroke fill markers;stop-color:#000000;stroke-linecap:round;stroke-linejoin:round;stroke-width:.52917;stroke:#fff"/>
  <path d="m16.933 273.91-2.824 5.228-5.78-0.002 4.71 3.42-1.66 5.545 4.555-3.565 4.555 3.565-1.66-5.545 4.71-3.42-5.78 0.002z" style="fill-opacity:.9982;fill-rule:evenodd;fill:#478cbf;paint-order:stroke fill markers;stop-color:#000000;stroke-linecap:round;stroke-linejoin:round;stroke-width:.26458;stroke:#000000"/>
  <path d="m16.933 273.91-2.824 5.228-5.78-0.002 4.71 3.42-1.66 5.545 4.555-3.565 4.555 3.565-1.66-5.545 4.71-3.42-5.78 0.002z" style="fill:none;paint-order:stroke fill markers;stop-color:#000000;stroke-linecap:round;stroke-linejoin:round;stroke-width:.52917;stroke:#fff"/>
  <path d="m16.933 282.52-2.824 5.228-5.78-0.002 4.71 3.42-1.66 5.545 4.555-3.565 4.555 3.565-1.66-5.545 4.71-3.42-5.78 0.002z" style="fill-opacity:.9982;fill-rule:evenodd;fill:#478cbf;paint-order:stroke fill markers;stop-color:#000000;stroke-linecap:round;stroke-linejoin:round;stroke-width:.26458;stroke:#000000"/>
  <path d="m16.933 282.52-2.824 5.228-5.78-0.002 4.71 3.42-1.66 5.545 4.555-3.565 4.555 3.565-1.66-5.545 4.71-3.42-5.78 0.002z" style="fill:none;paint-order:stroke fill markers;stop-color:#000000;stroke-linecap:round;stroke-linejoin:round;stroke-width:.52917;stroke:#fff"/>
 </g>
</svg>
